<svg width="12" height="12" viewBox="0 0 12 12" fill="none" xmlns="http://www.w3.org/2000/svg">
<g clip-path="url(#clip0)">
<path d="M10.8572 9.00914H9.62686C9.42681 8.34337 8.81508 7.8541 8.08511 7.8541C7.35513 7.8541 6.74386 8.34337 6.54336 9.00914H0.692786C0.437751 9.00914 0.230774 9.21614 0.230774 9.47117C0.230774 9.7262 0.437751 9.93318 0.692786 9.93318H6.54333C6.74338 10.5989 7.35511 11.0882 8.08508 11.0882C8.81506 11.0882 9.42633 10.5989 9.62684 9.93318H10.8572C11.1127 9.93318 11.3192 9.7262 11.3192 9.47117C11.3192 9.21614 11.1127 9.00914 10.8572 9.00914ZM8.08511 10.1642C7.70301 10.1642 7.39208 9.85327 7.39208 9.47117C7.39208 9.08907 7.70301 8.77814 8.08511 8.77814C8.4672 8.77814 8.77814 9.08907 8.77814 9.47117C8.77814 9.85327 8.46718 10.1642 8.08511 10.1642Z" fill="white"/>
<path d="M10.8572 1.61683H9.62686C9.42633 0.95107 8.81508 0.461792 8.08511 0.461792C7.35513 0.461792 6.74386 0.95107 6.54333 1.61683H0.692786C0.437751 1.61683 0.230774 1.82381 0.230774 2.07884C0.230774 2.33388 0.437751 2.54086 0.692786 2.54086H6.54333C6.74386 3.20664 7.35511 3.69592 8.08511 3.69592C8.81511 3.69592 9.42636 3.20664 9.62686 2.54088H10.8572C11.1127 2.54088 11.3192 2.3339 11.3192 2.07887C11.3192 1.82383 11.1127 1.61683 10.8572 1.61683ZM8.08511 2.77187C7.70301 2.77187 7.39208 2.46094 7.39208 2.07884C7.39208 1.69675 7.70301 1.38582 8.08511 1.38582C8.4672 1.38582 8.77814 1.69675 8.77814 2.07884C8.77814 2.46094 8.46718 2.77187 8.08511 2.77187Z" fill="white"/>
<path d="M10.8572 5.313H5.00667C4.80615 4.64724 4.1949 4.15796 3.46492 4.15796C2.73495 4.15796 2.12367 4.64724 1.92317 5.313H0.692786C0.437751 5.313 0.230774 5.51998 0.230774 5.77501C0.230774 6.03005 0.437751 6.23702 0.692786 6.23702H1.92315C2.12367 6.90279 2.73492 7.39206 3.4649 7.39206C4.19488 7.39206 4.80615 6.90279 5.00665 6.23702H10.8572C11.1127 6.23702 11.3192 6.03005 11.3192 5.77501C11.3192 5.51998 11.1127 5.313 10.8572 5.313ZM3.4649 6.46804C3.0828 6.46804 2.77187 6.15711 2.77187 5.77501C2.77187 5.39291 3.0828 5.08198 3.4649 5.08198C3.847 5.08198 4.15793 5.39291 4.15793 5.77501C4.15793 6.15711 3.847 6.46804 3.4649 6.46804Z" fill="white"/>
</g>
<defs>
<clipPath id="clip0">
<rect x="0.230774" y="0.230774" width="11.0885" height="11.0885" fill="white"/>
</clipPath>
</defs>
</svg>
