<svg width="178" height="28" viewBox="0 0 178 28" fill="none" xmlns="http://www.w3.org/2000/svg">
<path d="M4.048 24.336H12.832V27H0.772V1.908H4.048V24.336ZM34.3111 16.38C34.3111 17.004 34.2751 17.664 34.2031 18.36H18.4351C18.5551 20.304 19.2151 21.828 20.4151 22.932C21.6391 24.012 23.1151 24.552 24.8431 24.552C26.2591 24.552 27.4351 24.228 28.3711 23.58C29.3311 22.908 30.0031 22.02 30.3871 20.916H33.9151C33.3871 22.812 32.3311 24.36 30.7471 25.56C29.1631 26.736 27.1951 27.324 24.8431 27.324C22.9711 27.324 21.2911 26.904 19.8031 26.064C18.3391 25.224 17.1871 24.036 16.3471 22.5C15.5071 20.94 15.0871 19.14 15.0871 17.1C15.0871 15.06 15.4951 13.272 16.3111 11.736C17.1271 10.2 18.2671 9.024 19.7311 8.208C21.2191 7.368 22.9231 6.948 24.8431 6.948C26.7151 6.948 28.3711 7.356 29.8111 8.172C31.2511 8.988 32.3551 10.116 33.1231 11.556C33.9151 12.972 34.3111 14.58 34.3111 16.38ZM30.9271 15.696C30.9271 14.448 30.6511 13.38 30.0991 12.492C29.5471 11.58 28.7911 10.896 27.8311 10.44C26.8951 9.96 25.8511 9.72 24.6991 9.72C23.0431 9.72 21.6271 10.248 20.4511 11.304C19.2991 12.36 18.6391 13.824 18.4711 15.696H30.9271ZM42.6313 9.972V21.6C42.6313 22.56 42.8353 23.244 43.2433 23.652C43.6513 24.036 44.3593 24.228 45.3673 24.228H47.7793V27H44.8273C43.0033 27 41.6353 26.58 40.7233 25.74C39.8113 24.9 39.3553 23.52 39.3553 21.6V9.972H36.7993V7.272H39.3553V2.304H42.6313V7.272H47.7793V9.972H42.6313ZM52.2526 1.908H55.8886L52.4326 10.08H50.1286L52.2526 1.908ZM66.6076 27.324C65.0956 27.324 63.7396 27.072 62.5396 26.568C61.3396 26.04 60.3916 25.32 59.6956 24.408C58.9996 23.472 58.6156 22.404 58.5436 21.204H61.9276C62.0236 22.188 62.4796 22.992 63.2956 23.616C64.1356 24.24 65.2276 24.552 66.5716 24.552C67.8196 24.552 68.8036 24.276 69.5236 23.724C70.2436 23.172 70.6036 22.476 70.6036 21.636C70.6036 20.772 70.2196 20.136 69.4516 19.728C68.6836 19.296 67.4956 18.876 65.8876 18.468C64.4236 18.084 63.2236 17.7 62.2876 17.316C61.3756 16.908 60.5836 16.32 59.9116 15.552C59.2636 14.76 58.9396 13.728 58.9396 12.456C58.9396 11.448 59.2396 10.524 59.8396 9.684C60.4396 8.844 61.2916 8.184 62.3956 7.704C63.4996 7.2 64.7596 6.948 66.1756 6.948C68.3596 6.948 70.1236 7.5 71.4676 8.604C72.8116 9.708 73.5316 11.22 73.6276 13.14H70.3516C70.2796 12.108 69.8596 11.28 69.0916 10.656C68.3476 10.032 67.3396 9.72 66.0676 9.72C64.8916 9.72 63.9556 9.972 63.2596 10.476C62.5636 10.98 62.2156 11.64 62.2156 12.456C62.2156 13.104 62.4196 13.644 62.8276 14.076C63.2596 14.484 63.7876 14.82 64.4116 15.084C65.0596 15.324 65.9476 15.6 67.0756 15.912C68.4916 16.296 69.6436 16.68 70.5316 17.064C71.4196 17.424 72.1756 17.976 72.7996 18.72C73.4476 19.464 73.7836 20.436 73.8076 21.636C73.8076 22.716 73.5076 23.688 72.9076 24.552C72.3076 25.416 71.4556 26.1 70.3516 26.604C69.2716 27.084 68.0236 27.324 66.6076 27.324Z" fill="#353535"/>
<path d="M86.8058 14.436C86.8058 11.988 87.3578 9.792 88.4618 7.848C89.5658 5.88 91.0658 4.344 92.9618 3.24C94.8818 2.136 97.0058 1.584 99.3338 1.584C102.07 1.584 104.458 2.244 106.498 3.564C108.538 4.884 110.026 6.756 110.962 9.18H107.038C106.342 7.668 105.334 6.504 104.014 5.688C102.718 4.872 101.158 4.464 99.3338 4.464C97.5818 4.464 96.0098 4.872 94.6178 5.688C93.2258 6.504 92.1338 7.668 91.3418 9.18C90.5498 10.668 90.1538 12.42 90.1538 14.436C90.1538 16.428 90.5498 18.18 91.3418 19.692C92.1338 21.18 93.2258 22.332 94.6178 23.148C96.0098 23.964 97.5818 24.372 99.3338 24.372C101.158 24.372 102.718 23.976 104.014 23.184C105.334 22.368 106.342 21.204 107.038 19.692H110.962C110.026 22.092 108.538 23.952 106.498 25.272C104.458 26.568 102.07 27.216 99.3338 27.216C97.0058 27.216 94.8818 26.676 92.9618 25.596C91.0658 24.492 89.5658 22.968 88.4618 21.024C87.3578 19.08 86.8058 16.884 86.8058 14.436ZM124.442 27.324C122.594 27.324 120.914 26.904 119.402 26.064C117.914 25.224 116.738 24.036 115.874 22.5C115.034 20.94 114.614 19.14 114.614 17.1C114.614 15.084 115.046 13.308 115.91 11.772C116.798 10.212 117.998 9.024 119.51 8.208C121.022 7.368 122.714 6.948 124.586 6.948C126.458 6.948 128.15 7.368 129.662 8.208C131.174 9.024 132.362 10.2 133.226 11.736C134.114 13.272 134.558 15.06 134.558 17.1C134.558 19.14 134.102 20.94 133.19 22.5C132.302 24.036 131.09 25.224 129.554 26.064C128.018 26.904 126.314 27.324 124.442 27.324ZM124.442 24.444C125.618 24.444 126.722 24.168 127.754 23.616C128.786 23.064 129.614 22.236 130.238 21.132C130.886 20.028 131.21 18.684 131.21 17.1C131.21 15.516 130.898 14.172 130.274 13.068C129.65 11.964 128.834 11.148 127.826 10.62C126.818 10.068 125.726 9.792 124.55 9.792C123.35 9.792 122.246 10.068 121.238 10.62C120.254 11.148 119.462 11.964 118.862 13.068C118.262 14.172 117.962 15.516 117.962 17.1C117.962 18.708 118.25 20.064 118.826 21.168C119.426 22.272 120.218 23.1 121.202 23.652C122.186 24.18 123.266 24.444 124.442 24.444ZM147.47 27.324C145.622 27.324 143.942 26.904 142.43 26.064C140.942 25.224 139.766 24.036 138.902 22.5C138.062 20.94 137.642 19.14 137.642 17.1C137.642 15.084 138.074 13.308 138.938 11.772C139.826 10.212 141.026 9.024 142.538 8.208C144.05 7.368 145.742 6.948 147.614 6.948C149.486 6.948 151.178 7.368 152.69 8.208C154.202 9.024 155.39 10.2 156.254 11.736C157.142 13.272 157.586 15.06 157.586 17.1C157.586 19.14 157.13 20.94 156.218 22.5C155.33 24.036 154.118 25.224 152.582 26.064C151.046 26.904 149.342 27.324 147.47 27.324ZM147.47 24.444C148.646 24.444 149.75 24.168 150.782 23.616C151.814 23.064 152.642 22.236 153.266 21.132C153.914 20.028 154.238 18.684 154.238 17.1C154.238 15.516 153.926 14.172 153.302 13.068C152.678 11.964 151.862 11.148 150.854 10.62C149.846 10.068 148.754 9.792 147.578 9.792C146.378 9.792 145.274 10.068 144.266 10.62C143.282 11.148 142.49 11.964 141.89 13.068C141.29 14.172 140.99 15.516 140.99 17.1C140.99 18.708 141.278 20.064 141.854 21.168C142.454 22.272 143.246 23.1 144.23 23.652C145.214 24.18 146.294 24.444 147.47 24.444ZM172.909 27L165.169 18.288V27H161.893V0.36H165.169V16.02L172.765 7.272H177.337L168.049 17.1L177.373 27H172.909Z" fill="#449AEA"/>
</svg>
